<?xml version="1.0" standalone="no"?>
<!DOCTYPE svg PUBLIC "-//W3C//DTD SVG 20010904//EN"
 "http://www.w3.org/TR/2001/REC-SVG-20010904/DTD/svg10.dtd">
<svg version="1.0" xmlns="http://www.w3.org/2000/svg"
 width="332.000000pt" height="332.000000pt" viewBox="0 0 332.000000 332.000000"
 preserveAspectRatio="xMidYMid meet">
<metadata>
Created by potrace 1.11, written by Peter Selinger 2001-2013
</metadata>
<g transform="translate(0.000000,332.000000) scale(0.100000,-0.100000)"
fill="#000000" stroke="none">
<path d="M1470 3143 c-247 -32 -488 -123 -700 -264 -128 -85 -334 -291 -419
-419 -169 -256 -255 -521 -267 -820 -19 -460 151 -882 484 -1202 393 -377 946
-522 1478 -388 509 128 936 525 1103 1026 60 180 75 279 75 499 0 170 -3 216
-23 305 -57 266 -171 507 -329 697 l-52 62 -325 -255 c-179 -141 -323 -259
-320 -263 2 -4 153 -97 335 -206 208 -125 326 -201 318 -206 -44 -23 -1629
-895 -1658 -911 -35 -19 -35 -19 -15 0 11 11 243 219 515 462 272 243 496 446
498 450 1 4 -89 63 -200 131 -112 68 -233 142 -270 165 l-68 41 439 424 c284
275 435 428 430 435 -18 22 -227 123 -327 158 -175 61 -273 77 -482 81 -102 2
-201 1 -220 -2z"/>
</g>
</svg>
