<svg xmlns="http://www.w3.org/2000/svg" viewBox="0 0 486 108.45"><defs><style>.cls-1{fill:#231f20;}.cls-2{fill:#c2912c;}</style></defs><title>Logo</title><g id="svg4263"><path class="cls-1" d="M110.65,444.87V436.7h38.61v47.47c-11.37,3.34-20.87,4.82-29.43,4.82C88.67,489,63,470.27,63,439.64c0-28.35,23.4-47.47,55.1-47.47,6.14,0,17.24,1.75,23.93,4.68l-6.95,16.58c-4.55-1.34-12.84-1.73-15.51-1.73-13.37,0-27.15,8.69-27.15,29,0,19.92,14.85,28.75,24.47,28.75a14.47,14.47,0,0,0,4.15-.66V446.19Z" transform="translate(-63 -387.46)"/><path class="cls-1" d="M192.9,430.82c8.69,0,11.37,12.3,11.37,22.33,0,10.57-2.41,23.94-11.37,23.94s-11.23-13.37-11.23-23.94C181.67,443.12,184.21,430.82,192.9,430.82Zm0,58.17c23,0,38.51-15.11,38.51-35.84,0-21.66-18.85-34.23-38.51-34.23s-38.38,12.57-38.38,34.23C154.52,473.87,170,489,192.9,489Z" transform="translate(-63 -387.46)"/><path class="cls-1" d="M236.41,487.38V389.09h26.75v98.29Z" transform="translate(-63 -387.46)"/><path class="cls-1" d="M307.21,433.23c7.49,0,11.24,8.69,11.24,21.12,0,11-3.48,21.13-10.7,21.13-6.81,0-11.37-8.69-11.37-21.53C296.38,440.85,300.8,433.23,307.21,433.23Zm24.57,50.58,13.42-17V389.09H318.45v38.25h-.27c-3.75-5.08-10.83-8.42-19.26-8.42-22.47,0-30.76,20.59-30.76,34.23C268.16,470.53,277,489,298,489c9.76,0,18.7-7.11,23-11.12Z" transform="translate(-63 -387.46)"/><path class="cls-2" d="M403.94,407.22a26.32,26.32,0,0,0-11.85-3,10.47,10.47,0,0,0-10.73,9.45c0,4.66,3,10,10.73,20,7.2,9.17,10.06,21.65,9.74,31.7-.62,19.18-15.79,30.47-35.84,30.47-11,0-22.69-4.68-29.05-9.59l11-15c3.46,3.46,7.57,7.14,14.05,7.14a13,13,0,0,0,13-12.69c0-6.5-5.08-12.42-11.85-21.73-7.06-9.88-9.29-19-8.6-28.88,1.12-16.62,15.51-27.66,34.7-27.66,12.7,0,17.5,3.66,23.42,7.05Z" transform="translate(-63 -387.46)"/><path class="cls-2" d="M440.26,420.52l-12.56,66.86H403.62l12.57-66.86Z" transform="translate(-63 -387.46)"/><path class="cls-2" d="M469,431.22l.27.26c6.15-6.69,15.25-12.57,26.2-12.57a12.23,12.23,0,0,1,12,12.57c6.95-7.49,17.91-12.44,25.94-12.57,11-.27,15.9,5.34,15.51,14.17a56.2,56.2,0,0,1-1.47,11.36l-7.89,42.93H515.55l7.89-42.12a14.28,14.28,0,0,0,.4-3.34c0-5.35-2.54-6.42-4.81-6.42-6.42,0-11.63,9.1-13.77,20.6l-6,31.29H475.15l7.9-42.12a14.29,14.29,0,0,0,.4-3.34c0-5.35-2.54-6.42-4.82-6.42-6.41,0-11.63,9.1-13.77,20.6l-6,31.29H434.77l12.58-66.86h23.79Z" transform="translate(-63 -387.46)"/></g></svg>