<?xml version="1.0" standalone="no"?>
<!DOCTYPE svg PUBLIC "-//W3C//DTD SVG 20010904//EN"
 "http://www.w3.org/TR/2001/REC-SVG-20010904/DTD/svg10.dtd">
<svg version="1.0" xmlns="http://www.w3.org/2000/svg"
 width="700.000000pt" height="700.000000pt" viewBox="0 0 700.000000 700.000000"
 preserveAspectRatio="xMidYMid meet">
<metadata>
Created by potrace 1.14, written by Peter Selinger 2001-2017
</metadata>
<g transform="translate(0.000000,700.000000) scale(0.100000,-0.100000)"
fill="#000000" stroke="none">
<path d="M1053 6150 c-77 -18 -144 -75 -189 -160 -18 -34 -19 -112 -19 -2495
l0 -2460 22 -40 c25 -47 84 -105 133 -131 32 -18 68 -19 455 -22 l420 -2 340
812 c186 447 422 1009 522 1248 101 239 183 438 183 442 0 4 -295 8 -655 8
-360 0 -655 2 -655 4 0 4 581 1094 1211 2273 153 287 279 524 279 527 0 9
-2010 5 -2047 -4z"/>
<path d="M4422 5201 c-452 -528 -822 -962 -822 -965 0 -3 308 -6 683 -6 376 0
686 -3 690 -6 3 -3 -112 -137 -256 -297 -145 -161 -722 -805 -1283 -1432 -562
-627 -1123 -1253 -1248 -1392 -124 -139 -226 -255 -226 -258 0 -3 897 -5 1993
-5 l1992 0 50 24 c64 29 112 77 141 141 l24 50 0 2445 c0 2435 -1 2445 -21
2490 -32 72 -65 106 -130 139 l-62 31 -352 0 -352 0 -821 -959z"/>
</g>
</svg>
